Wavefont-ExtraBold.ufo
<glyph name="_1" format="2">
  <advance width="128.0"/>
  <unicode hex="0101"/>
  <unicode hex="002E"/>
  <unicode hex="002A"/>
  <unicode hex="005F"/>
  <unicode hex="02CD"/>
  <unicode hex="002D"/>
  <unicode hex="2013"/>
  <unicode hex="2014"/>
  <unicode hex="2015"/>
  <unicode hex="2581"/>
  <unicode hex="0100"/>
  <unicode hex="0030"/>
  <unicode hex="0061"/>
  <outline>
    <contour>
      <point x="5.0" y="10.0" type="curve" smooth="yes"/>
      <point x="123.0" y="10.0" type="line"/>
      <point x="125.75" y="10.0"/>
      <point x="128.0" y="7.75"/>
      <point x="128.0" y="5.0" type="curve" smooth="yes"/>
      <point x="128.0" y="5.0" type="line"/>
      <point x="128.0" y="2.25"/>
      <point x="125.75" y="0.0"/>
      <point x="123.0" y="0.0" type="curve" smooth="yes"/>
      <point x="5.0" y="0.0" type="line"/>
      <point x="2.25" y="0.0"/>
      <point x="0.0" y="2.25"/>
      <point x="0.0" y="5.0" type="curve" smooth="yes"/>
      <point x="0.0" y="5.0" type="line"/>
      <point x="0.0" y="7.75"/>
      <point x="2.25" y="10.0"/>
    </contour>
  </outline>
</glyph>
<glyph name="_3" format="2">
  <advance width="128.0"/>
  <unicode hex="0103"/>
  <outline>
    <contour>
      <point x="15.0" y="30.0" type="curve" smooth="yes"/>
      <point x="113.0" y="30.0" type="line"/>
      <point x="121.25" y="30.0"/>
      <point x="128.0" y="23.25"/>
      <point x="128.0" y="15.0" type="curve" smooth="yes"/>
      <point x="128.0" y="15.0" type="line"/>
      <point x="128.0" y="6.75"/>
      <point x="121.25" y="0.0"/>
      <point x="113.0" y="0.0" type="curve" smooth="yes"/>
      <point x="15.0" y="0.0" type="line"/>
      <point x="6.75" y="0.0"/>
      <point x="0.0" y="6.75"/>
      <point x="0.0" y="15.0" type="curve" smooth="yes"/>
      <point x="0.0" y="15.0" type="line"/>
      <point x="0.0" y="23.25"/>
      <point x="6.75" y="30.0"/>
    </contour>
  </outline>
</glyph>
<glyph name="_7" format="2">
  <advance width="128.0"/>
  <unicode hex="0107"/>
  <outline>
    <contour>
      <point x="35.0" y="70.0" type="curve" smooth="yes"/>
      <point x="93.0" y="70.0" type="line"/>
      <point x="112.25" y="70.0"/>
      <point x="128.0" y="54.25"/>
      <point x="128.0" y="35.0" type="curve" smooth="yes"/>
      <point x="128.0" y="35.0" type="line"/>
      <point x="128.0" y="15.75"/>
      <point x="112.25" y="0.0"/>
      <point x="93.0" y="0.0" type="curve" smooth="yes"/>
      <point x="35.0" y="0.0" type="line"/>
      <point x="15.75" y="0.0"/>
      <point x="0.0" y="15.75"/>
      <point x="0.0" y="35.0" type="curve" smooth="yes"/>
      <point x="0.0" y="35.0" type="line"/>
      <point x="0.0" y="54.25"/>
      <point x="15.75" y="70.0"/>
    </contour>
  </outline>
</glyph>
<glyph name="_8" format="2">
  <advance width="128.0"/>
  <unicode hex="0108"/>
  <unicode hex="0065"/>
  <outline>
    <contour>
      <point x="40.0" y="80.0" type="curve" smooth="yes"/>
      <point x="88.0" y="80.0" type="line"/>
      <point x="110.0" y="80.0"/>
      <point x="128.0" y="62.0"/>
      <point x="128.0" y="40.0" type="curve" smooth="yes"/>
      <point x="128.0" y="40.0" type="line"/>
      <point x="128.0" y="18.0"/>
      <point x="110.0" y="0.0"/>
      <point x="88.0" y="0.0" type="curve" smooth="yes"/>
      <point x="40.0" y="0.0" type="line"/>
      <point x="18.0" y="0.0"/>
      <point x="0.0" y="18.0"/>
      <point x="0.0" y="40.0" type="curve" smooth="yes"/>
      <point x="0.0" y="40.0" type="line"/>
      <point x="0.0" y="62.0"/>
      <point x="18.0" y="80.0"/>
    </contour>
  </outline>
</glyph>
<glyph name="_9" format="2">
  <advance width="128.0"/>
  <unicode hex="0109"/>
  <outline>
    <contour>
      <point x="45.0" y="90.0" type="curve" smooth="yes"/>
      <point x="83.0" y="90.0" type="line"/>
      <point x="107.75" y="90.0"/>
      <point x="128.0" y="69.75"/>
      <point x="128.0" y="45.0" type="curve" smooth="yes"/>
      <point x="128.0" y="45.0" type="line"/>
      <point x="128.0" y="20.25"/>
      <point x="107.75" y="0.0"/>
      <point x="83.0" y="0.0" type="curve" smooth="yes"/>
      <point x="45.0" y="0.0" type="line"/>
      <point x="20.25" y="0.0"/>
      <point x="0.0" y="20.25"/>
      <point x="0.0" y="45.0" type="curve" smooth="yes"/>
      <point x="0.0" y="45.0" type="line"/>
      <point x="0.0" y="69.75"/>
      <point x="20.25" y="90.0"/>
    </contour>
  </outline>
</glyph>
<glyph name="_11" format="2">
  <advance width="128.0"/>
  <unicode hex="010B"/>
  <outline>
    <contour>
      <point x="55.0" y="110.0" type="curve" smooth="yes"/>
      <point x="73.0" y="110.0" type="line"/>
      <point x="103.25" y="110.0"/>
      <point x="128.0" y="85.25"/>
      <point x="128.0" y="55.0" type="curve" smooth="yes"/>
      <point x="128.0" y="55.0" type="line"/>
      <point x="128.0" y="24.75"/>
      <point x="103.25" y="0.0"/>
      <point x="73.0" y="0.0" type="curve" smooth="yes"/>
      <point x="55.0" y="0.0" type="line"/>
      <point x="24.75" y="0.0"/>
      <point x="0.0" y="24.75"/>
      <point x="0.0" y="55.0" type="curve" smooth="yes"/>
      <point x="0.0" y="55.0" type="line"/>
      <point x="0.0" y="85.25"/>
      <point x="24.75" y="110.0"/>
    </contour>
  </outline>
</glyph>
<glyph name="_13" format="2">
  <advance width="128.0"/>
  <unicode hex="010D"/>
  <outline>
    <contour>
      <point x="0.0" y="64.24897959183673" type="line"/>
      <point x="0.0" y="66.24897959183673" type="line"/>
      <point x="128.0" y="66.24897959183673" type="line"/>
      <point x="128.0" y="64.24897959183673" type="line"/>
    </contour>
    <component base="cap"/>
    <component base="cap" yOffset="2.0"/>
  </outline>
</glyph>
<glyph name="_14" format="2">
  <advance width="128.0"/>
  <unicode hex="010E"/>
  <unicode hex="2582"/>
  <unicode hex="0068"/>
  <outline>
    <contour>
      <point x="0.0" y="64.24897959183673" type="line"/>
      <point x="0.0" y="76.24897959183673" type="line"/>
      <point x="128.0" y="76.24897959183673" type="line"/>
      <point x="128.0" y="64.24897959183673" type="line"/>
    </contour>
    <component base="cap"/>
    <component base="cap" yOffset="12.0"/>
  </outline>
</glyph>
<glyph name="_15" format="2">
  <advance width="128.0"/>
  <unicode hex="010F"/>
  <outline>
    <contour>
      <point x="0.0" y="64.24897959183673" type="line"/>
      <point x="0.0" y="86.24897959183673" type="line"/>
      <point x="128.0" y="86.24897959183673" type="line"/>
      <point x="128.0" y="64.24897959183673" type="line"/>
    </contour>
    <component base="cap"/>
    <component base="cap" yOffset="22.0"/>
  </outline>
</glyph>
<glyph name="_17" format="2">
  <advance width="128.0"/>
  <unicode hex="0111"/>
  <outline>
    <contour>
      <point x="0.0" y="64.24897959183673" type="line"/>
      <point x="0.0" y="106.24897959183673" type="line"/>
      <point x="128.0" y="106.24897959183673" type="line"/>
      <point x="128.0" y="64.24897959183673" type="line"/>
    </contour>
    <component base="cap"/>
    <component base="cap" yOffset="42.0"/>
  </outline>
</glyph>
<glyph name="_18" format="2">
  <advance width="128.0"/>
  <unicode hex="0112"/>
  <unicode hex="006A"/>
  <outline>
    <contour>
      <point x="0.0" y="64.24897959183673" type="line"/>
      <point x="0.0" y="116.24897959183673" type="line"/>
      <point x="128.0" y="116.24897959183673" type="line"/>
      <point x="128.0" y="64.24897959183673" type="line"/>
    </contour>
    <component base="cap"/>
    <component base="cap" yOffset="52.0"/>
  </outline>
</glyph>
<glyph name="_22" format="2">
  <advance width="128.0"/>
  <unicode hex="0116"/>
  <unicode hex="006C"/>
  <outline>
    <contour>
      <point x="0.0" y="64.24897959183673" type="line"/>
      <point x="0.0" y="156.24897959183673" type="line"/>
      <point x="128.0" y="156.24897959183673" type="line"/>
      <point x="128.0" y="64.24897959183673" type="line"/>
    </contour>
    <component base="cap"/>
    <component base="cap" yOffset="92.0"/>
  </outline>
</glyph>
<glyph name="_24" format="2">
  <advance width="128.0"/>
  <unicode hex="0118"/>
  <unicode hex="006D"/>
  <outline>
    <contour>
      <point x="0.0" y="64.24897959183673" type="line"/>
      <point x="0.0" y="176.24897959183673" type="line"/>
      <point x="128.0" y="176.24897959183673" type="line"/>
      <point x="128.0" y="64.24897959183673" type="line"/>
    </contour>
    <component base="cap"/>
    <component base="cap" yOffset="112.0"/>
  </outline>
</glyph>
<glyph name="_25" format="2">
  <advance width="128.0"/>
  <unicode hex="0119"/>
  <outline>
    <contour>
      <point x="0.0" y="64.24897959183673" type="line"/>
      <point x="0.0" y="186.24897959183673" type="line"/>
      <point x="128.0" y="186.24897959183673" type="line"/>
      <point x="128.0" y="64.24897959183673" type="line"/>
    </contour>
    <component base="cap"/>
    <component base="cap" yOffset="122.0"/>
  </outline>
</glyph>
<glyph name="_26" format="2">
  <advance width="128.0"/>
  <unicode hex="011A"/>
  <unicode hex="006E"/>
  <outline>
    <contour>
      <point x="0.0" y="64.24897959183673" type="line"/>
      <point x="0.0" y="196.24897959183673" type="line"/>
      <point x="128.0" y="196.24897959183673" type="line"/>
      <point x="128.0" y="64.24897959183673" type="line"/>
    </contour>
    <component base="cap"/>
    <component base="cap" yOffset="132.0"/>
  </outline>
</glyph>
<glyph name="_27" format="2">
  <advance width="128.0"/>
  <unicode hex="011B"/>
  <outline>
    <contour>
      <point x="0.0" y="64.24897959183673" type="line"/>
      <point x="0.0" y="206.24897959183673" type="line"/>
      <point x="128.0" y="206.24897959183673" type="line"/>
      <point x="128.0" y="64.24897959183673" type="line"/>
    </contour>
    <component base="cap"/>
    <component base="cap" yOffset="142.0"/>
  </outline>
</glyph>
<glyph name="_28" format="2">
  <advance width="128.0"/>
  <unicode hex="011C"/>
  <unicode hex="2583"/>
  <unicode hex="006F"/>
  <outline>
    <contour>
      <point x="0.0" y="64.24897959183673" type="line"/>
      <point x="0.0" y="216.24897959183673" type="line"/>
      <point x="128.0" y="216.24897959183673" type="line"/>
      <point x="128.0" y="64.24897959183673" type="line"/>
    </contour>
    <component base="cap"/>
    <component base="cap" yOffset="152.0"/>
  </outline>
</glyph>
<glyph name="_30" format="2">
  <advance width="128.0"/>
  <unicode hex="011E"/>
  <unicode hex="0033"/>
  <unicode hex="0070"/>
  <outline>
    <contour>
      <point x="0.0" y="64.24897959183673" type="line"/>
      <point x="0.0" y="236.24897959183673" type="line"/>
      <point x="128.0" y="236.24897959183673" type="line"/>
      <point x="128.0" y="64.24897959183673" type="line"/>
    </contour>
    <component base="cap"/>
    <component base="cap" yOffset="172.0"/>
  </outline>
</glyph>
<glyph name="_36" format="2">
  <advance width="128.0"/>
  <unicode hex="0124"/>
  <unicode hex="0073"/>
  <outline>
    <contour>
      <point x="0.0" y="64.24897959183673" type="line"/>
      <point x="0.0" y="296.2489795918367" type="line"/>
      <point x="128.0" y="296.2489795918367" type="line"/>
      <point x="128.0" y="64.24897959183673" type="line"/>
    </contour>
    <component base="cap"/>
    <component base="cap" yOffset="232.0"/>
  </outline>
</glyph>
<glyph name="_38" format="2">
  <advance width="128.0"/>
  <unicode hex="0126"/>
  <unicode hex="0074"/>
  <outline>
    <contour>
      <point x="0.0" y="64.24897959183673" type="line"/>
      <point x="0.0" y="316.2489795918367" type="line"/>
      <point x="128.0" y="316.2489795918367" type="line"/>
      <point x="128.0" y="64.24897959183673" type="line"/>
    </contour>
    <component base="cap"/>
    <component base="cap" yOffset="252.0"/>
  </outline>
</glyph>
<glyph name="_42" format="2">
  <advance width="128.0"/>
  <unicode hex="012A"/>
  <unicode hex="2584"/>
  <unicode hex="0076"/>
  <outline>
    <contour>
      <point x="0.0" y="64.24897959183673" type="line"/>
      <point x="0.0" y="356.2489795918367" type="line"/>
      <point x="128.0" y="356.2489795918367" type="line"/>
      <point x="128.0" y="64.24897959183673" type="line"/>
    </contour>
    <component base="cap"/>
    <component base="cap" yOffset="292.0"/>
  </outline>
</glyph>
<glyph name="_43" format="2">
  <advance width="128.0"/>
  <unicode hex="012B"/>
  <outline>
    <contour>
      <point x="0.0" y="64.24897959183673" type="line"/>
      <point x="0.0" y="366.2489795918367" type="line"/>
      <point x="128.0" y="366.2489795918367" type="line"/>
      <point x="128.0" y="64.24897959183673" type="line"/>
    </contour>
    <component base="cap"/>
    <component base="cap" yOffset="302.0"/>
  </outline>
</glyph>
<glyph name="_44" format="2">
  <advance width="128.0"/>
  <unicode hex="012C"/>
  <unicode hex="0077"/>
  <outline>
    <contour>
      <point x="0.0" y="64.24897959183673" type="line"/>
      <point x="0.0" y="376.2489795918367" type="line"/>
      <point x="128.0" y="376.2489795918367" type="line"/>
      <point x="128.0" y="64.24897959183673" type="line"/>
    </contour>
    <component base="cap"/>
    <component base="cap" yOffset="312.0"/>
  </outline>
</glyph>
<glyph name="_46" format="2">
  <advance width="128.0"/>
  <unicode hex="012E"/>
  <unicode hex="0078"/>
  <outline>
    <contour>
      <point x="0.0" y="64.24897959183673" type="line"/>
      <point x="0.0" y="396.2489795918367" type="line"/>
      <point x="128.0" y="396.2489795918367" type="line"/>
      <point x="128.0" y="64.24897959183673" type="line"/>
    </contour>
    <component base="cap"/>
    <component base="cap" yOffset="332.0"/>
  </outline>
</glyph>
<glyph name="_47" format="2">
  <advance width="128.0"/>
  <unicode hex="012F"/>
  <outline>
    <contour>
      <point x="0.0" y="64.24897959183673" type="line"/>
      <point x="0.0" y="406.2489795918367" type="line"/>
      <point x="128.0" y="406.2489795918367" type="line"/>
      <point x="128.0" y="64.24897959183673" type="line"/>
    </contour>
    <component base="cap"/>
    <component base="cap" yOffset="342.0"/>
  </outline>
</glyph>
<glyph name="_50" format="2">
  <advance width="128.0"/>
  <unicode hex="0132"/>
  <unicode hex="0035"/>
  <unicode hex="007A"/>
  <outline>
    <contour>
      <point x="0.0" y="64.24897959183673" type="line"/>
      <point x="0.0" y="436.2489795918367" type="line"/>
      <point x="128.0" y="436.2489795918367" type="line"/>
      <point x="128.0" y="64.24897959183673" type="line"/>
    </contour>
    <component base="cap"/>
    <component base="cap" yOffset="372.0"/>
  </outline>
</glyph>
<glyph name="_56" format="2">
  <advance width="128.0"/>
  <unicode hex="0138"/>
  <unicode hex="2585"/>
  <unicode hex="0043"/>
  <outline>
    <contour>
      <point x="0.0" y="64.24897959183673" type="line"/>
      <point x="0.0" y="496.2489795918367" type="line"/>
      <point x="128.0" y="496.2489795918367" type="line"/>
      <point x="128.0" y="64.24897959183673" type="line"/>
    </contour>
    <component base="cap"/>
    <component base="cap" yOffset="432.0"/>
  </outline>
</glyph>
<glyph name="_60" format="2">
  <advance width="128.0"/>
  <unicode hex="013C"/>
  <unicode hex="0036"/>
  <unicode hex="0045"/>
  <outline>
    <contour>
      <point x="0.0" y="64.24897959183673" type="line"/>
      <point x="0.0" y="536.2489795918367" type="line"/>
      <point x="128.0" y="536.2489795918367" type="line"/>
      <point x="128.0" y="64.24897959183673" type="line"/>
    </contour>
    <component base="cap"/>
    <component base="cap" yOffset="472.0"/>
  </outline>
</glyph>
<glyph name="_63" format="2">
  <advance width="128.0"/>
  <unicode hex="013F"/>
  <outline>
    <contour>
      <point x="0.0" y="64.24897959183673" type="line"/>
      <point x="0.0" y="566.2489795918367" type="line"/>
      <point x="128.0" y="566.2489795918367" type="line"/>
      <point x="128.0" y="64.24897959183673" type="line"/>
    </contour>
    <component base="cap"/>
    <component base="cap" yOffset="502.0"/>
  </outline>
</glyph>
<glyph name="_64" format="2">
  <advance width="128.0"/>
  <unicode hex="0140"/>
  <unicode hex="0047"/>
  <outline>
    <contour>
      <point x="0.0" y="64.24897959183673" type="line"/>
      <point x="0.0" y="576.2489795918367" type="line"/>
      <point x="128.0" y="576.2489795918367" type="line"/>
      <point x="128.0" y="64.24897959183673" type="line"/>
    </contour>
    <component base="cap"/>
    <component base="cap" yOffset="512.0"/>
  </outline>
</glyph>
<glyph name="_67" format="2">
  <advance width="128.0"/>
  <unicode hex="0143"/>
  <outline>
    <contour>
      <point x="0.0" y="64.24897959183673" type="line"/>
      <point x="0.0" y="606.2489795918367" type="line"/>
      <point x="128.0" y="606.2489795918367" type="line"/>
      <point x="128.0" y="64.24897959183673" type="line"/>
    </contour>
    <component base="cap"/>
    <component base="cap" yOffset="542.0"/>
  </outline>
</glyph>
<glyph name="_68" format="2">
  <advance width="128.0"/>
  <unicode hex="0144"/>
  <unicode hex="0049"/>
  <outline>
    <contour>
      <point x="0.0" y="64.24897959183673" type="line"/>
      <point x="0.0" y="616.2489795918367" type="line"/>
      <point x="128.0" y="616.2489795918367" type="line"/>
      <point x="128.0" y="64.24897959183673" type="line"/>
    </contour>
    <component base="cap"/>
    <component base="cap" yOffset="552.0"/>
  </outline>
</glyph>
<glyph name="_70" format="2">
  <advance width="128.0"/>
  <unicode hex="0146"/>
  <unicode hex="0037"/>
  <unicode hex="004A"/>
  <outline>
    <contour>
      <point x="0.0" y="64.24897959183673" type="line"/>
      <point x="0.0" y="636.2489795918367" type="line"/>
      <point x="128.0" y="636.2489795918367" type="line"/>
      <point x="128.0" y="64.24897959183673" type="line"/>
    </contour>
    <component base="cap"/>
    <component base="cap" yOffset="572.0"/>
  </outline>
</glyph>
<glyph name="_72" format="2">
  <advance width="128.0"/>
  <unicode hex="0148"/>
  <unicode hex="2586"/>
  <unicode hex="004B"/>
  <outline>
    <contour>
      <point x="0.0" y="64.24897959183673" type="line"/>
      <point x="0.0" y="656.2489795918367" type="line"/>
      <point x="128.0" y="656.2489795918367" type="line"/>
      <point x="128.0" y="64.24897959183673" type="line"/>
    </contour>
    <component base="cap"/>
    <component base="cap" yOffset="592.0"/>
  </outline>
</glyph>
<glyph name="_74" format="2">
  <advance width="128.0"/>
  <unicode hex="014A"/>
  <unicode hex="004C"/>
  <outline>
    <contour>
      <point x="0.0" y="64.24897959183673" type="line"/>
      <point x="0.0" y="676.2489795918367" type="line"/>
      <point x="128.0" y="676.2489795918367" type="line"/>
      <point x="128.0" y="64.24897959183673" type="line"/>
    </contour>
    <component base="cap"/>
    <component base="cap" yOffset="612.0"/>
  </outline>
</glyph>
<glyph name="_77" format="2">
  <advance width="128.0"/>
  <unicode hex="014D"/>
  <outline>
    <contour>
      <point x="0.0" y="64.24897959183673" type="line"/>
      <point x="0.0" y="706.2489795918367" type="line"/>
      <point x="128.0" y="706.2489795918367" type="line"/>
      <point x="128.0" y="64.24897959183673" type="line"/>
    </contour>
    <component base="cap"/>
    <component base="cap" yOffset="642.0"/>
  </outline>
</glyph>
<glyph name="_78" format="2">
  <advance width="128.0"/>
  <unicode hex="014E"/>
  <unicode hex="004E"/>
  <outline>
    <contour>
      <point x="0.0" y="64.24897959183673" type="line"/>
      <point x="0.0" y="716.2489795918367" type="line"/>
      <point x="128.0" y="716.2489795918367" type="line"/>
      <point x="128.0" y="64.24897959183673" type="line"/>
    </contour>
    <component base="cap"/>
    <component base="cap" yOffset="652.0"/>
  </outline>
</glyph>
<glyph name="_79" format="2">
  <advance width="128.0"/>
  <unicode hex="014F"/>
  <outline>
    <contour>
      <point x="0.0" y="64.24897959183673" type="line"/>
      <point x="0.0" y="726.2489795918367" type="line"/>
      <point x="128.0" y="726.2489795918367" type="line"/>
      <point x="128.0" y="64.24897959183673" type="line"/>
    </contour>
    <component base="cap"/>
    <component base="cap" yOffset="662.0"/>
  </outline>
</glyph>
<glyph name="_80" format="2">
  <advance width="128.0"/>
  <unicode hex="0150"/>
  <unicode hex="0038"/>
  <unicode hex="004F"/>
  <outline>
    <contour>
      <point x="0.0" y="64.24897959183673" type="line"/>
      <point x="0.0" y="736.2489795918367" type="line"/>
      <point x="128.0" y="736.2489795918367" type="line"/>
      <point x="128.0" y="64.24897959183673" type="line"/>
    </contour>
    <component base="cap"/>
    <component base="cap" yOffset="672.0"/>
  </outline>
</glyph>
<glyph name="_81" format="2">
  <advance width="128.0"/>
  <unicode hex="0151"/>
  <outline>
    <contour>
      <point x="0.0" y="64.24897959183673" type="line"/>
      <point x="0.0" y="746.2489795918367" type="line"/>
      <point x="128.0" y="746.2489795918367" type="line"/>
      <point x="128.0" y="64.24897959183673" type="line"/>
    </contour>
    <component base="cap"/>
    <component base="cap" yOffset="682.0"/>
  </outline>
</glyph>
<glyph name="_82" format="2">
  <advance width="128.0"/>
  <unicode hex="0152"/>
  <unicode hex="0050"/>
  <outline>
    <contour>
      <point x="0.0" y="64.24897959183673" type="line"/>
      <point x="0.0" y="756.2489795918367" type="line"/>
      <point x="128.0" y="756.2489795918367" type="line"/>
      <point x="128.0" y="64.24897959183673" type="line"/>
    </contour>
    <component base="cap"/>
    <component base="cap" yOffset="692.0"/>
  </outline>
</glyph>
<glyph name="_84" format="2">
  <advance width="128.0"/>
  <unicode hex="0154"/>
  <unicode hex="0051"/>
  <outline>
    <contour>
      <point x="0.0" y="64.24897959183673" type="line"/>
      <point x="0.0" y="776.2489795918367" type="line"/>
      <point x="128.0" y="776.2489795918367" type="line"/>
      <point x="128.0" y="64.24897959183673" type="line"/>
    </contour>
    <component base="cap"/>
    <component base="cap" yOffset="712.0"/>
  </outline>
</glyph>
<glyph name="_85" format="2">
  <advance width="128.0"/>
  <unicode hex="0155"/>
  <outline>
    <contour>
      <point x="0.0" y="64.24897959183673" type="line"/>
      <point x="0.0" y="786.2489795918367" type="line"/>
      <point x="128.0" y="786.2489795918367" type="line"/>
      <point x="128.0" y="64.24897959183673" type="line"/>
    </contour>
    <component base="cap"/>
    <component base="cap" yOffset="722.0"/>
  </outline>
</glyph>
<glyph name="_86" format="2">
  <advance width="128.0"/>
  <unicode hex="0156"/>
  <unicode hex="2587"/>
  <unicode hex="0052"/>
  <outline>
    <contour>
      <point x="0.0" y="64.24897959183673" type="line"/>
      <point x="0.0" y="796.2489795918367" type="line"/>
      <point x="128.0" y="796.2489795918367" type="line"/>
      <point x="128.0" y="64.24897959183673" type="line"/>
    </contour>
    <component base="cap"/>
    <component base="cap" yOffset="732.0"/>
  </outline>
</glyph>
<glyph name="_87" format="2">
  <advance width="128.0"/>
  <unicode hex="0157"/>
  <outline>
    <contour>
      <point x="0.0" y="64.24897959183673" type="line"/>
      <point x="0.0" y="806.2489795918367" type="line"/>
      <point x="128.0" y="806.2489795918367" type="line"/>
      <point x="128.0" y="64.24897959183673" type="line"/>
    </contour>
    <component base="cap"/>
    <component base="cap" yOffset="742.0"/>
  </outline>
</glyph>
<glyph name="_91" format="2">
  <advance width="128.0"/>
  <unicode hex="015B"/>
  <outline>
    <contour>
      <point x="0.0" y="64.24897959183673" type="line"/>
      <point x="0.0" y="846.2489795918367" type="line"/>
      <point x="128.0" y="846.2489795918367" type="line"/>
      <point x="128.0" y="64.24897959183673" type="line"/>
    </contour>
    <component base="cap"/>
    <component base="cap" yOffset="782.0"/>
  </outline>
</glyph>
<glyph name="_98" format="2">
  <advance width="128.0"/>
  <unicode hex="0162"/>
  <unicode hex="0058"/>
  <outline>
    <contour>
      <point x="0.0" y="64.24897959183673" type="line"/>
      <point x="0.0" y="916.2489795918367" type="line"/>
      <point x="128.0" y="916.2489795918367" type="line"/>
      <point x="128.0" y="64.24897959183673" type="line"/>
    </contour>
    <component base="cap"/>
    <component base="cap" yOffset="852.0"/>
  </outline>
</glyph>
<glyph name="_99" format="2">
  <advance width="128.0"/>
  <unicode hex="0163"/>
  <unicode hex="0059"/>
  <outline>
    <contour>
      <point x="0.0" y="64.24897959183673" type="line"/>
      <point x="0.0" y="926.2489795918367" type="line"/>
      <point x="128.0" y="926.2489795918367" type="line"/>
      <point x="128.0" y="64.24897959183673" type="line"/>
    </contour>
    <component base="cap"/>
    <component base="cap" yOffset="862.0"/>
  </outline>
</glyph>
<glyph name="_100" format="2">
  <advance width="128.0"/>
  <unicode hex="0164"/>
  <unicode hex="007C"/>
  <unicode hex="2588"/>
  <unicode hex="005A"/>
  <outline>
    <contour>
      <point x="0.0" y="64.24897959183673" type="line"/>
      <point x="0.0" y="936.2489795918367" type="line"/>
      <point x="128.0" y="936.2489795918367" type="line"/>
      <point x="128.0" y="64.24897959183673" type="line"/>
    </contour>
    <component base="cap"/>
    <component base="cap" yOffset="872.0"/>
  </outline>
</glyph>
<glyph name="_103" format="2">
  <advance width="128.0"/>
  <unicode hex="0167"/>
  <outline>
    <contour>
      <point x="0.0" y="64.24897959183673" type="line"/>
      <point x="0.0" y="966.2489795918367" type="line"/>
      <point x="128.0" y="966.2489795918367" type="line"/>
      <point x="128.0" y="64.24897959183673" type="line"/>
    </contour>
    <component base="cap"/>
    <component base="cap" yOffset="902.0"/>
  </outline>
</glyph>
<glyph name="_104" format="2">
  <advance width="128.0"/>
  <unicode hex="0168"/>
  <outline>
    <contour>
      <point x="0.0" y="64.24897959183673" type="line"/>
      <point x="0.0" y="976.2489795918367" type="line"/>
      <point x="128.0" y="976.2489795918367" type="line"/>
      <point x="128.0" y="64.24897959183673" type="line"/>
    </contour>
    <component base="cap"/>
    <component base="cap" yOffset="912.0"/>
  </outline>
</glyph>
<glyph name="_105" format="2">
  <advance width="128.0"/>
  <unicode hex="0169"/>
  <outline>
    <contour>
      <point x="0.0" y="64.24897959183673" type="line"/>
      <point x="0.0" y="986.2489795918367" type="line"/>
      <point x="128.0" y="986.2489795918367" type="line"/>
      <point x="128.0" y="64.24897959183673" type="line"/>
    </contour>
    <component base="cap"/>
    <component base="cap" yOffset="922.0"/>
  </outline>
</glyph>
<glyph name="_108" format="2">
  <advance width="128.0"/>
  <unicode hex="016C"/>
  <outline>
    <contour>
      <point x="0.0" y="64.24897959183673" type="line"/>
      <point x="0.0" y="1016.2489795918367" type="line"/>
      <point x="128.0" y="1016.2489795918367" type="line"/>
      <point x="128.0" y="64.24897959183673" type="line"/>
    </contour>
    <component base="cap"/>
    <component base="cap" yOffset="952.0"/>
  </outline>
</glyph>
<glyph name="_111" format="2">
  <advance width="128.0"/>
  <unicode hex="016F"/>
  <outline>
    <contour>
      <point x="0.0" y="64.24897959183673" type="line"/>
      <point x="0.0" y="1046.2489795918368" type="line"/>
      <point x="128.0" y="1046.2489795918368" type="line"/>
      <point x="128.0" y="64.24897959183673" type="line"/>
    </contour>
    <component base="cap"/>
    <component base="cap" yOffset="982.0"/>
  </outline>
</glyph>
<glyph name="_1.clip" format="2">
  <advance width="128.0"/>
  <outline>
    <contour>
      <point x="0.0" y="64.24897959183673" type="line"/>
      <point x="0.0" y="-53.75102040816327" type="line"/>
      <point x="128.0" y="-53.75102040816327" type="line"/>
      <point x="128.0" y="64.24897959183673" type="line"/>
    </contour>
    <component base="cap"/>
    <component base="cap" yOffset="-118.0"/>
  </outline>
</glyph>
<glyph name="_15.clip" format="2">
  <advance width="128.0"/>
  <outline>
    <contour>
      <point x="75.0" y="150.0" type="curve" smooth="yes"/>
      <point x="53.0" y="150.0" type="line"/>
      <point x="94.25" y="150.0"/>
      <point x="128.0" y="116.25"/>
      <point x="128.0" y="75.0" type="curve" smooth="yes"/>
      <point x="128.0" y="75.0" type="line"/>
      <point x="128.0" y="33.75"/>
      <point x="94.25" y="0.0"/>
      <point x="53.0" y="0.0" type="curve" smooth="yes"/>
      <point x="75.0" y="0.0" type="line"/>
      <point x="33.75" y="0.0"/>
      <point x="0.0" y="33.75"/>
      <point x="0.0" y="75.0" type="curve" smooth="yes"/>
      <point x="0.0" y="75.0" type="line"/>
      <point x="0.0" y="116.25"/>
      <point x="33.75" y="150.0"/>
    </contour>
  </outline>
</glyph>
<glyph name="_16.clip" format="2">
  <advance width="128.0"/>
  <outline>
    <contour>
      <point x="80.0" y="160.0" type="curve" smooth="yes"/>
      <point x="48.0" y="160.0" type="line"/>
      <point x="92.0" y="160.0"/>
      <point x="128.0" y="124.0"/>
      <point x="128.0" y="80.0" type="curve" smooth="yes"/>
      <point x="128.0" y="80.0" type="line"/>
      <point x="128.0" y="36.0"/>
      <point x="92.0" y="0.0"/>
      <point x="48.0" y="0.0" type="curve" smooth="yes"/>
      <point x="80.0" y="0.0" type="line"/>
      <point x="36.0" y="0.0"/>
      <point x="0.0" y="36.0"/>
      <point x="0.0" y="80.0" type="curve" smooth="yes"/>
      <point x="0.0" y="80.0" type="line"/>
      <point x="0.0" y="124.0"/>
      <point x="36.0" y="160.0"/>
    </contour>
  </outline>
</glyph>
<glyph name="_17.clip" format="2">
  <advance width="128.0"/>
  <outline>
    <contour>
      <point x="85.0" y="170.0" type="curve" smooth="yes"/>
      <point x="43.0" y="170.0" type="line"/>
      <point x="89.75" y="170.0"/>
      <point x="128.0" y="131.75"/>
      <point x="128.0" y="85.0" type="curve" smooth="yes"/>
      <point x="128.0" y="85.0" type="line"/>
      <point x="128.0" y="38.25"/>
      <point x="89.75" y="0.0"/>
      <point x="43.0" y="0.0" type="curve" smooth="yes"/>
      <point x="85.0" y="0.0" type="line"/>
      <point x="38.25" y="0.0"/>
      <point x="0.0" y="38.25"/>
      <point x="0.0" y="85.0" type="curve" smooth="yes"/>
      <point x="0.0" y="85.0" type="line"/>
      <point x="0.0" y="131.75"/>
      <point x="38.25" y="170.0"/>
    </contour>
  </outline>
</glyph>
<glyph name="_2.clip" format="2">
  <advance width="128.0"/>
  <outline>
    <contour>
      <point x="0.0" y="64.24897959183673" type="line"/>
      <point x="0.0" y="-43.75102040816327" type="line"/>
      <point x="128.0" y="-43.75102040816327" type="line"/>
      <point x="128.0" y="64.24897959183673" type="line"/>
    </contour>
    <component base="cap"/>
    <component base="cap" yOffset="-108.0"/>
  </outline>
</glyph>
<glyph name="_20.clip" format="2">
  <advance width="128.0"/>
  <outline>
    <contour>
      <point x="100.0" y="200.0" type="curve" smooth="yes"/>
      <point x="28.0" y="200.0" type="line"/>
      <point x="83.49795918367347" y="200.0"/>
      <point x="128.0" y="155.0"/>
      <point x="128.0" y="100.0" type="curve" smooth="yes"/>
      <point x="128.0" y="100.0" type="line"/>
      <point x="128.0" y="44.0"/>
      <point x="83.49795918367347" y="0.0"/>
      <point x="28.0" y="0.0" type="curve" smooth="yes"/>
      <point x="100.0" y="0.0" type="line"/>
      <point x="44.0" y="0.0"/>
      <point x="0.0" y="44.0"/>
      <point x="0.0" y="100.0" type="curve" smooth="yes"/>
      <point x="0.0" y="100.0" type="line"/>
      <point x="0.0" y="155.0"/>
      <point x="44.0" y="200.0"/>
    </contour>
  </outline>
</glyph>
<glyph name="_21.clip" format="2">
  <advance width="128.0"/>
  <outline>
    <contour>
      <point x="105.0" y="210.0" type="curve" smooth="yes"/>
      <point x="23.0" y="210.0" type="line"/>
      <point x="80.75" y="210.0"/>
      <point x="128.0" y="162.75"/>
      <point x="128.0" y="105.0" type="curve" smooth="yes"/>
      <point x="128.0" y="105.0" type="line"/>
      <point x="128.0" y="47.25"/>
      <point x="80.75" y="0.0"/>
      <point x="23.0" y="0.0" type="curve" smooth="yes"/>
      <point x="105.0" y="0.0" type="line"/>
      <point x="47.25" y="0.0"/>
      <point x="0.0" y="47.25"/>
      <point x="0.0" y="105.0" type="curve" smooth="yes"/>
      <point x="0.0" y="105.0" type="line"/>
      <point x="0.0" y="162.75"/>
      <point x="47.25" y="210.0"/>
    </contour>
  </outline>
</glyph>
<glyph name="_22.clip" format="2">
  <advance width="128.0"/>
  <outline>
    <contour>
      <point x="110.0" y="220.0" type="curve" smooth="yes"/>
      <point x="18.0" y="220.0" type="line"/>
      <point x="78.5" y="220.0"/>
      <point x="128.0" y="170.5"/>
      <point x="128.0" y="110.0" type="curve" smooth="yes"/>
      <point x="128.0" y="110.0" type="line"/>
      <point x="128.0" y="49.5"/>
      <point x="78.5" y="0.0"/>
      <point x="18.0" y="0.0" type="curve" smooth="yes"/>
      <point x="110.0" y="0.0" type="line"/>
      <point x="49.5" y="0.0"/>
      <point x="0.0" y="49.5"/>
      <point x="0.0" y="110.0" type="curve" smooth="yes"/>
      <point x="0.0" y="110.0" type="line"/>
      <point x="0.0" y="170.5"/>
      <point x="49.5" y="220.0"/>
    </contour>
  </outline>
</glyph>
<glyph name="_24.clip" format="2">
  <advance width="128.0"/>
  <outline>
    <contour>
      <point x="120.0" y="240.0" type="curve" smooth="yes"/>
      <point x="8.0" y="240.0" type="line"/>
      <point x="74.49795918367347" y="240.0"/>
      <point x="128.0" y="186.0"/>
      <point x="128.0" y="120.0" type="curve" smooth="yes"/>
      <point x="128.0" y="120.0" type="line"/>
      <point x="128.0" y="53.0"/>
      <point x="74.49795918367347" y="0.0"/>
      <point x="8.0" y="0.0" type="curve" smooth="yes"/>
      <point x="120.0" y="0.0" type="line"/>
      <point x="53.0" y="0.0"/>
      <point x="0.0" y="53.0"/>
      <point x="0.0" y="120.0" type="curve" smooth="yes"/>
      <point x="0.0" y="120.0" type="line"/>
      <point x="0.0" y="186.0"/>
      <point x="53.0" y="240.0"/>
    </contour>
  </outline>
</glyph>
<glyph name="cap" format="2">
  <outline>
    <contour>
      <point x="64.0" y="128.0" type="curve" smooth="yes"/>
      <point x="64.0" y="128.0" type="line"/>
      <point x="99.2" y="128.0"/>
      <point x="128.0" y="99.2"/>
      <point x="128.0" y="64.0" type="curve" smooth="yes"/>
      <point x="128.0" y="64.0" type="line"/>
      <point x="128.0" y="28.8"/>
      <point x="99.2" y="0.0"/>
      <point x="64.0" y="0.0" type="curve" smooth="yes"/>
      <point x="64.0" y="0.0" type="line"/>
      <point x="28.8" y="0.0"/>
      <point x="0.0" y="28.8"/>
      <point x="0.0" y="64.0" type="curve" smooth="yes"/>
      <point x="0.0" y="64.0" type="line"/>
      <point x="0.0" y="99.2"/>
      <point x="28.8" y="128.0"/>
    </contour>
  </outline>
</glyph>
